<?xml version="1.0" encoding="utf-8"?>
<!-- Generator: Adobe Illustrator 18.0.0, SVG Export Plug-In . SVG Version: 6.00 Build 0)  -->
<!DOCTYPE svg PUBLIC "-//W3C//DTD SVG 1.1//EN" "http://www.w3.org/Graphics/SVG/1.1/DTD/svg11.dtd">
<svg version="1.1" xmlns="http://www.w3.org/2000/svg" xmlns:xlink="http://www.w3.org/1999/xlink" x="0px" y="0px" width="800px"
	 height="600px" viewBox="0 0 800 600" enable-background="new 0 0 800 600" xml:space="preserve">
<g id="Background">
	<rect fill="#FFFFFF" width="800" height="600"/>
</g>
<g id="Object">
	<g>
		<g>
			<ellipse fill="#BDC3C7" cx="400" cy="531" rx="169.3" ry="5"/>
			<g>
				<path fill="#D5D8DA" d="M444.6,210.8l-12.7-35l-40.9,9.1c-6.2-9.6-13.9-17.9-22.6-24.8l13.2-39.7l-33.8-15.7L325.3,140
					c-10.9-2.3-22.2-2.8-33.5-1.5l-18.7-37.4l-35,12.7l9.1,40.9c-9.6,6.2-17.9,13.9-24.8,22.6l-39.7-13.2L167,197.9l35.3,22.5
					c-2.3,10.9-2.8,22.2-1.5,33.5l-37.4,18.7l12.7,35l40.9-9.1c6.2,9.6,13.9,17.9,22.6,24.8l-13.2,39.7l33.8,15.7l22.5-35.3
					c10.9,2.3,22.2,2.8,33.5,1.5l18.7,37.4l35-12.7l-9.1-40.9c9.6-6.2,17.9-13.9,24.8-22.6l39.7,13.2l15.7-33.8L405.6,263
					c2.3-10.9,2.8-22.2,1.5-33.5L444.6,210.8z M324.2,297.2c-30.7,11.2-64.6-4.7-75.8-35.3c-11.2-30.7,4.7-64.6,35.3-75.8
					c30.7-11.2,64.6,4.7,75.8,35.3C370.7,252.1,354.9,286.1,324.2,297.2z"/>
				<path fill="#D5D8DA" d="M636.6,287.6l-5.7-15.6l-18.2,4c-2.8-4.3-6.2-8-10.1-11l5.9-17.7l-15-7l-10,15.7
					c-4.8-1-9.9-1.3-14.9-0.7l-8.3-16.7l-15.6,5.7l4,18.2c-4.3,2.8-8,6.2-11,10.1l-17.7-5.9l-7,15l15.7,10c-1,4.8-1.3,9.9-0.7,14.9
					l-16.7,8.3l5.7,15.6l18.2-4c2.8,4.3,6.2,8,10.1,11l-5.9,17.7l15,7l10-15.7c4.8,1,9.9,1.3,14.9,0.7l8.3,16.7l15.6-5.7l-4-18.2
					c4.3-2.8,8-6.2,11-10.1l17.7,5.9l7-15l-15.7-10c1-4.8,1.3-9.9,0.7-14.9L636.6,287.6z M583,326.1c-13.7,5-28.8-2.1-33.8-15.7
					c-5-13.7,2.1-28.8,15.7-33.8c13.7-5,28.8,2.1,33.8,15.7C603.7,306,596.7,321.1,583,326.1z"/>
				<path fill="#D5D8DA" d="M519.7,382.2c0-5.3-0.7-10.4-2.1-15.3l21.3-15.8l-10.6-18.3l-24.6,10.2c-7.1-7.3-16.2-12.7-26.5-15.3
					l-3-26.4h-21.1l-3.5,26.4c-10.2,2.6-19.3,8-26.5,15.3l-24.4-10.6l-10.6,18.3l21.1,16.2c-1.4,4.9-2.1,10-2.1,15.3
					c0,5.3,0.7,10.4,2.1,15.3l-21.3,15.8l10.6,18.3l24.6-10.2c7.1,7.3,16.2,12.7,26.5,15.3l3,26.4h21.1l3.5-26.4
					c10.2-2.6,19.3-8,26.5-15.3l24.4,10.6l10.6-18.3l-21.1-16.2C519,392.7,519.7,387.6,519.7,382.2z M463.5,412.9
					c-16.9,0-30.7-13.7-30.7-30.7s13.7-30.7,30.7-30.7c16.9,0,30.7,13.7,30.7,30.7S480.4,412.9,463.5,412.9z"/>
			</g>
			<g>
				<g>
					<g>
						<path fill="#8BC248" d="M457.9,528.9c0,0-4.9-140.5,82.1-216c0,0,33,120.6-31.5,216H457.9z"/>
						<path fill="#7DB342" d="M547.4,412.1c0.1-0.7,0.1-1.5,0.2-2.2l-40.1,17c2.2-9.4,4.5-18.8,7-28.3l33.8-20.5
							c0-0.8,0-1.5-0.1-2.3l-33,20c2.3-8.8,4.7-17.6,7.2-26.3l23.9-20.7c-0.1-0.8-0.2-1.6-0.3-2.4L523.4,366
							c5.4-18.4,11.1-35.8,17.1-50.8c-0.3-1.4-0.6-2.2-0.6-2.2c-0.4,0.3-0.7,0.6-1.1,1c-4.2,10.4-8.2,22-12.1,34.2l-2.9-19.3
							c-0.6,0.6-1.2,1.3-1.7,1.9l3.3,21.7c-2.9,9.2-5.6,18.8-8.3,28.5l-9.2-32.1c-0.5,0.7-1,1.4-1.5,2.1l9.6,33.7
							c-2.6,9.5-5,19.1-7.4,28.6l-17.2-36.8c-0.4,0.8-0.8,1.5-1.1,2.3l17.6,37.6c-2.6,10.7-5.1,21.3-7.3,31.5l-21.9-41.7
							c-0.3,0.9-0.6,1.7-0.9,2.6l22.2,42.2c-2,9-3.8,17.7-5.5,25.9L467,446.3c-0.2,0.8-0.4,1.6-0.5,2.4l27.5,30.4
							c-1.9,9.4-3.7,18.1-5.2,25.9l-28.5-19.3c-0.1,0.8-0.2,1.5-0.3,2.2l28.3,19.1c-1.7,8.6-3,16.1-4.1,21.8h2
							c0.5-2.9,1.1-6.1,1.8-9.7l29-4.2c0.4-0.7,0.8-1.5,1.2-2.2l-29.9,4.3c1.5-7.7,3.2-16.9,5.3-27.1l36.8-3.1
							c0.3-0.7,0.5-1.4,0.8-2.1l-37.2,3.1c1.5-7.5,3.2-15.4,4.9-23.8l42.8-14.6c0.2-0.8,0.3-1.5,0.5-2.3l-42.8,14.6
							c2.3-10.5,4.7-21.5,7.4-32.7L547.4,412.1z"/>
					</g>
					<g>
						<path fill="#CDDC37" d="M489.8,528.9h49.7c67.2-43.2,80.5-169.7,80.5-169.7C498.6,401.6,489.8,528.9,489.8,528.9z"/>
						<path fill="#7DB342" d="M615.8,385.7c0.2-0.9,0.3-1.7,0.5-2.5l-22.6,11.9c8.9-12.7,17.8-24.3,26.2-33.9c0.2-1.3,0.2-2,0.2-2
							c-0.6,0.2-1.1,0.4-1.7,0.6c-7.2,8.3-14.8,18-22.5,28.7l3.7-20.9c-0.7,0.4-1.5,0.7-2.2,1.1l-4.2,23.6
							c-4.1,5.8-8.2,11.7-12.3,17.9l-2.6-30.6c-0.6,0.4-1.3,0.8-1.9,1.2l2.7,32.1c-6.2,9.4-12.4,19.1-18.4,28.8l-9.2-41
							c-0.6,0.5-1.1,1.1-1.7,1.6l9.3,41.8c-5,8.1-9.8,16.1-14.4,23.9l-15.9-41.2c-0.5,0.6-0.9,1.3-1.4,1.9l16,41.5
							c-5,8.5-9.8,16.7-14.1,24.4l-18.9-36.8c-0.4,0.8-0.7,1.5-1.1,2.3l18.8,36.7c-5.9,10.3-11,19.5-15,26.9l-12.9-40.9
							c-0.4,1.1-0.7,2.2-1.1,3.2l12.7,40.2c-0.6,1.1-1.1,2.1-1.7,3.1h2.3c2.4-4.4,5.3-9.7,8.6-15.7h37.4c0.6-0.7,1.3-1.3,1.9-2
							h-38.2c2.2-4,4.6-8.2,7.1-12.7l0.1,0.2l1.8-0.9l-0.7-1.4c2.5-4.3,5.1-8.9,7.8-13.6l40.6,3.7c0.4-0.6,0.8-1.3,1.2-1.9
							l-40.7-3.7c4.7-8.1,9.8-16.7,15-25.4l38.5,4.1c0.3-0.6,0.6-1.3,0.8-1.9l-38.2-4.1c5.5-9.1,11.3-18.4,17.1-27.5l33.7-2.9
							c0.2-0.7,0.4-1.4,0.6-2.1l-32.9,2.8c5.6-8.8,11.4-17.4,17.1-25.6L615.8,385.7z"/>
					</g>
				</g>
				<g>
					<g>
						<path fill="#8BC248" d="M339.6,528.9c0,0,4.9-140.5-82.1-216c0,0-33,120.6,31.5,216H339.6z"/>
						<path fill="#7DB342" d="M250.1,412.1c-0.1-0.7-0.1-1.5-0.2-2.2l40.1,17c-2.2-9.4-4.5-18.8-7-28.3L249.2,378
							c0-0.8,0-1.5,0.1-2.3l33,20c-2.3-8.8-4.7-17.6-7.2-26.3l-23.9-20.7c0.1-0.8,0.2-1.6,0.3-2.4l22.6,19.5
							c-5.4-18.4-11.1-35.8-17.1-50.8c0.3-1.4,0.6-2.2,0.6-2.2c0.4,0.3,0.7,0.6,1.1,1c4.2,10.4,8.2,22,12.1,34.2l2.9-19.3
							c0.6,0.6,1.2,1.3,1.7,1.9l-3.3,21.7c2.9,9.2,5.6,18.8,8.3,28.5l9.2-32.1c0.5,0.7,1,1.4,1.5,2.1l-9.6,33.7
							c2.6,9.5,5,19.1,7.4,28.6l17.2-36.8c0.4,0.8,0.8,1.5,1.1,2.3l-17.6,37.6c2.6,10.7,5.1,21.3,7.3,31.5l21.9-41.7
							c0.3,0.9,0.6,1.7,0.9,2.6l-22.2,42.2c2,9,3.8,17.7,5.5,25.9l27.5-30.3c0.2,0.8,0.4,1.6,0.5,2.4l-27.5,30.4
							c1.9,9.4,3.7,18.1,5.2,25.9l28.5-19.3c0.1,0.8,0.2,1.5,0.3,2.2l-28.3,19.1c1.7,8.6,3,16.1,4.1,21.8h-2
							c-0.5-2.9-1.1-6.1-1.8-9.7l-29-4.2c-0.4-0.7-0.8-1.5-1.2-2.2l29.9,4.3c-1.5-7.7-3.2-16.9-5.3-27.1l-36.8-3.1
							c-0.3-0.7-0.5-1.4-0.8-2.1l37.2,3.1c-1.5-7.5-3.2-15.4-4.9-23.8l-42.8-14.6c-0.2-0.8-0.3-1.5-0.5-2.3l42.8,14.6
							c-2.3-10.5-4.7-21.5-7.4-32.7L250.1,412.1z"/>
					</g>
					<g>
						<path fill="#CDDC37" d="M307.7,528.9H258c-67.2-43.2-80.5-169.7-80.5-169.7C298.9,401.6,307.7,528.9,307.7,528.9z"/>
						<path fill="#7DB342" d="M181.8,385.7c-0.2-0.9-0.3-1.7-0.5-2.5l22.6,11.9c-8.9-12.7-17.8-24.3-26.2-33.9c-0.2-1.3-0.2-2-0.2-2
							c0.6,0.2,1.1,0.4,1.7,0.6c7.2,8.3,14.8,18,22.5,28.7l-3.7-20.9c0.7,0.4,1.5,0.7,2.2,1.1l4.2,23.6c4.1,5.8,8.2,11.7,12.3,17.9
							l2.6-30.6c0.6,0.4,1.3,0.8,1.9,1.2l-2.7,32.1c6.2,9.4,12.4,19.1,18.4,28.8l9.2-41c0.6,0.5,1.1,1.1,1.7,1.6l-9.3,41.8
							c5,8.1,9.8,16.1,14.4,23.9l15.9-41.2c0.5,0.6,0.9,1.3,1.4,1.9l-16,41.5c5,8.5,9.8,16.7,14.1,24.4l18.9-36.8
							c0.4,0.8,0.7,1.5,1.1,2.3l-18.8,36.7c5.9,10.3,11,19.5,15,26.9l12.9-40.9c0.4,1.1,0.7,2.2,1.1,3.2l-12.7,40.2
							c0.6,1.1,1.1,2.1,1.7,3.1H285c-2.4-4.4-5.3-9.7-8.6-15.7H239c-0.6-0.7-1.3-1.3-1.9-2h38.2c-2.2-4-4.6-8.2-7.1-12.7l-0.1,0.2
							l-1.8-0.9l0.7-1.4c-2.5-4.3-5.1-8.9-7.8-13.6l-40.6,3.7c-0.4-0.6-0.8-1.3-1.2-1.9l40.7-3.7c-4.7-8.1-9.8-16.7-15-25.4
							l-38.5,4.1c-0.3-0.6-0.6-1.3-0.8-1.9l38.2-4.1c-5.5-9.1-11.3-18.4-17.1-27.5l-33.7-2.9c-0.2-0.7-0.4-1.4-0.6-2.1l32.9,2.8
							c-5.6-8.8-11.4-17.4-17.1-25.6L181.8,385.7z"/>
					</g>
				</g>
			</g>
			<polygon fill="#F0C419" points="555.7,90.9 535,91.7 524.7,70.7 517.2,91.8 494.6,94.6 511.4,108.6 505.8,131.9 526.6,118.8 
				546.4,128.3 541,106.7 			"/>
			<polygon fill="#F0C419" points="280.3,151.8 265.6,152.4 258.3,137.4 252.9,152.5 236.8,154.5 248.8,164.5 244.8,181.1 
				259.6,171.7 273.8,178.5 269.9,163.1 			"/>
			<polygon fill="#F0C419" points="517.1,252.4 527.2,241.6 542.9,247 536.1,232.6 546,219.7 530.5,221.1 521.6,206.6 517.7,223.7 
				502.9,228.9 516.6,237 			"/>
			<polygon fill="#F0C419" points="570.6,151.5 560.4,151.9 555.3,141.4 551.6,151.9 540.4,153.3 548.7,160.3 545.9,171.8 
				556.2,165.3 566.1,170 563.4,159.3 			"/>
			<polygon fill="#F0C419" points="227.7,261.2 241.6,246.2 263.4,253.7 253.9,233.7 267.7,216 246.2,217.9 233.8,197.8 
				228.5,221.4 208,228.7 226.9,239.9 			"/>
		</g>
		<g>
			<path fill="#FEDDBF" d="M399.3,164.5l-3.6-9.1c0,0,2.4-3.1,1.8-6.8c-0.6-3.7-2.8,2.7-2.8,2.7s-1.8-10.8-4.5-8.7
				c-2.6,2-2.4,10.5,1.3,14.3l4.2,10.1L399.3,164.5z"/>
			<path fill="#F29C1F" d="M397.7,156.6c0,0,6.4,22,15.9,30.6c7.3,6.7,23.1,13.8,30.1,16.8c2,0.8,3,3,2.5,5.1v0
				c-0.6,2.4-3.1,3.8-5.5,3c-8.6-2.7-27.5-9.6-36.1-19.3c-11.3-12.7-13.7-34.9-13.7-34.9L397.7,156.6z"/>
			<g>
				<path fill="#F29C1F" d="M350,84.7l-31-10.8c0,0-9.1,66.7,47,54l-5.2-8.9c0,0-32.4,14.1-35.7-35.2l27.7,8.5L350,84.7z"/>
				<path fill="#F0C419" d="M432.7,64h-94c0,0,8,70.5,41.8,85.5h13.6C394.2,149.6,428,134.5,432.7,64z"/>
				<path fill="#F0C419" d="M380.5,149.6c0,0,1.9,30.1-14.6,39v5.6h42.3v-6.6c0,0-13.6-1.4-14.1-38.1H380.5z"/>
				<polygon fill="#7B3024" points="417.6,194.2 355.2,194.2 352.8,228 421.4,228 				"/>
				<polygon fill="#BDC3C7" points="408.3,201.7 366,203.1 366,220.5 408.3,220.5 				"/>
				<path fill="#F29C1F" d="M432.7,64h-12c-1.9,20.2-8.1,66-26.5,85.5C394.2,149.6,428,134.5,432.7,64z"/>
				<path fill="#F29C1F" d="M424.2,84.7l31-10.8c0,0,9.1,66.7-47,54l5.2-8.9c0,0,32.4,14.1,35.7-35.2l-27.7,8.5L424.2,84.7z"/>
			</g>
			<polygon fill="#BDC3C7" points="310.3,228 275.1,528.9 501.9,528.9 460.2,228 			"/>
			<polygon fill="#95A5A5" points="460.2,228 390.5,228 422.5,528.9 501.9,528.9 			"/>
			<g>
				<path fill="#FEDDBF" d="M460.1,359.9l8.9-4.2c0,0,0.4-3.9,3.4-6.3s0.2,3.9,0.2,3.9s8.8-6.7,9.4-3.3c0.5,3.3-5.5,9.4-10.9,9.6
					l-10.1,4.5L460.1,359.9z"/>
				<path fill="#2980BA" d="M437.1,366.2c14.9-3.8,30.6-11.1,30.6-11.1l3.8,7.4c0,0-21.8,13.5-37.5,14.9c-14,1.2-30.3-7.3-37.7-11.8
					c-2.3-1.4-3.1-4.3-1.8-6.6l0,0c1.3-2.4,4.3-3.2,6.6-2C409,361.1,426,369,437.1,366.2z"/>
			</g>
			<g>
				<g>
					<polygon fill="#35495E" points="451.4,228 501.3,528.9 509.8,528.9 459.6,228 					"/>
					<g>
						<polygon fill="#2C3E50" points="410.7,258 461.2,258 463,263 412.5,263 						"/>
						<polygon fill="#2C3E50" points="417,297.4 467.5,297.4 469.3,302.4 418.7,302.4 						"/>
						<polygon fill="#2C3E50" points="423.2,336.8 473.8,336.8 475.6,341.8 425,341.8 						"/>
						<polygon fill="#2C3E50" points="429.5,376.2 480,376.2 481.8,381.2 431.3,381.2 						"/>
						<polygon fill="#2C3E50" points="435.8,415.6 486.3,415.6 488.1,420.6 437.5,420.6 						"/>
						<polygon fill="#2C3E50" points="442.1,455 492.6,455 494.4,460 443.8,460 						"/>
						<polygon fill="#2C3E50" points="448.3,494.4 498.8,494.4 500.6,499.4 450.1,499.4 						"/>
					</g>
				</g>
				<polygon fill="#35495E" points="401.6,228 451.5,528.9 460.1,528.9 409.8,228 				"/>
			</g>
			<g>
				<path fill="#5E1F18" d="M475,370.2l1,5.7h-20c0,0,2.1-4.7,11.9-5.7H475z"/>
				<polygon fill="#FEDDBF" points="475,370.2 469.5,356.2 462.7,356.2 468,370.2 				"/>
				<path fill="#5E1F18" d="M459.9,258.1c0,0-1.6,37.7,0,51.7c1.6,14,13.8,55,13.8,55l-10.1,1.9c0,0-14.4-27.2-21.2-57.8
					c-4.8-21.7-3.9-50.9-3.9-50.9H459.9z"/>
				<path fill="#5E1F18" d="M519.2,301.2l5.7-1v20c0,0-4.7-2.1-5.7-11.9V301.2z"/>
				<polygon fill="#FEDDBF" points="519.2,301.2 505.2,303.3 505.2,310.1 519.2,308.2 				"/>
				<path fill="#6E1E11" d="M446.9,258.1c0,0,0.7,44.9,17.6,54.3c16.8,9.4,52.7-1.6,52.7-1.6l-2.2-10.7c0,0-37.3,2.5-40.5-0.3
					c-3.4-3-6.3-41.6-6.3-41.6L446.9,258.1z"/>
				<path fill="#F29C1F" d="M438.1,260.1l-1.5-50.4c-0.1-4.2,3.1-7.7,7.2-8l11.4-0.8c4.2-0.3,7.9,2.8,8.3,7l4.7,50.4
					C468.1,258.2,450,267.4,438.1,260.1z"/>
				<path fill="#FEDDBF" d="M452.3,188.2v14.5c0,1.7-1.3,3-3,3l0,0c-1.7,0-3-1.3-3-3v-14.5H452.3z"/>
				<path fill="#FEDDBF" d="M440,178c3.3-6.2,15.8-2.3,15.2,6.2c-0.6,8.5-9.4,14.6-14.3,9.7C438.3,191.2,438.3,181.2,440,178z"/>
				<path fill="#35495E" d="M439.3,178.1c-0.1-4.9,7.9-4.9,11.2-3.1c4.7,2.6,4.7,5.5,4.7,5.5s2.2,0.1,2.1,3.5
					c-0.1,3.4-3.6,8.1-5,7.6c-1.3-0.5-0.5-8.9-0.5-8.9S439.4,182.9,439.3,178.1z"/>
			</g>
			<path fill="#FEDDBF" d="M413.8,161.5l-4-8.9c0,0,2.2-3.2,1.5-6.9s-2.6,2.8-2.6,2.8s-2.3-10.7-4.9-8.5c-2.6,2.2-1.9,10.6,2,14.2
				l4.7,9.9L413.8,161.5z"/>
			<path fill="#F0C419" d="M411.8,153.7c0,0,7.3,21.7,17.2,29.9c7.6,6.3,23.7,12.8,30.9,15.4c2,0.8,3.2,2.9,2.7,5l0,0
				c-0.5,2.4-3,3.9-5.4,3.3c-8.7-2.3-27.9-8.3-37-17.6c-11.9-12.2-15.2-34.3-15.2-34.3L411.8,153.7z"/>
			<path fill="#FEDDBF" d="M417.4,374.1l6.4-7.4c0,0-1.2-3.7,0.6-7c1.8-3.3,1.7,3.5,1.7,3.5s5.4-9.5,7.2-6.7
				c1.8,2.8-1.3,10.7-6.1,13l-7.4,8.1L417.4,374.1z"/>
			<path fill="#2C3E50" d="M400.2,523.1l-1,5.7h20c0,0-2.1-4.7-11.9-5.7H400.2z"/>
			<polygon fill="#FEDDBF" points="400.2,523.1 402.3,509.1 409.2,509.1 407.2,523.1 			"/>
			<path fill="#35495E" d="M357.6,523.1l-1,5.7h20c0,0-2.1-4.7-11.9-5.7H357.6z"/>
			<polygon fill="#FEDDBF" points="357.6,523.1 363.1,509.1 370,509.1 364.6,523.1 			"/>
			<path fill="#2C3E50" d="M402.8,413c0,0,7.7,23.2,9.4,48.7c2,29-2.9,58-2.9,58h-9.6c0,0-0.4-45.6-4.1-57.5
				c-3.7-11.9-15.6-50.3-15.6-50.3L402.8,413z"/>
			<path fill="#35495E" d="M372.7,411c0,0,1.6,37.7,0,51.7c-1.6,14-13.8,55-13.8,55l10.1,1.9c0,0,14.4-27.2,21.2-57.8
				c4.8-21.7,3.9-50.9,3.9-50.9H372.7z"/>
			<path fill="#2980BA" d="M402.8,413l1.5-50.4c0.1-4.2-3.1-7.7-7.2-8l-11.4-0.8c-4.2-0.3-7.9,2.8-8.3,7l-4.7,50.4
				C372.7,411.2,390.9,420.4,402.8,413z"/>
			<path fill="#FEDDBF" d="M388.5,341.2v14.5c0,1.7,1.3,3,3,3l0,0c1.7,0,3-1.3,3-3v-14.5H388.5z"/>
			<path fill="#FEDDBF" d="M395.8,329c-5.2-4.7-15.6,3.3-12.2,11c3.5,7.7,13.9,10.5,16.7,4.2C401.9,340.7,398.4,331.4,395.8,329z"/>
			<path fill="#35495E" d="M396.4,328.8c-1.6-4.6-9.1-1.9-11.6,0.9c-3.6,4-2.6,6.8-2.6,6.8s-2,0.8-0.7,4c1.3,3.2,6.2,6.3,7.3,5.4
				s-2.6-8.5-2.6-8.5S398,333.4,396.4,328.8z"/>
			<path fill="#35495E" d="M386.2,337.4c0,0,2.6,4.6,6.1,6.5c3.5,1.9,7.1-3.7,8.7-2.4c1.6,1.3,0.9,4.7-1.9,6
				c-2.8,1.3-7.2,0.4-11.1-5.3C384.1,336.6,386.2,337.4,386.2,337.4z"/>
			<path fill="#3B97D3" d="M378.2,359.9c2.3-2.4,6.2-2,7.9,0.9c4.2,7.5,11.3,19.3,14.6,19.3c4.8,0,21.7-12.6,21.7-12.6l3.3,4.8
				c0,0-14.6,17.7-26.1,16.8c-9-0.7-18.4-16.7-22.1-23.7C376.5,363.6,376.8,361.4,378.2,359.9L378.2,359.9z"/>
		</g>
	</g>
</g>
</svg>
